<svg width="1400" height="350" viewBox="0 0 1400 350" fill="none" xmlns="http://www.w3.org/2000/svg">
<rect width="1400" height="350" fill="#1E1E1E"/>
<path d="M371.562 66.625V61.3516C368.768 61.334 366.342 60.877 364.268 59.9805L364.725 56.4297C367.133 57.4668 369.4 58.0469 371.562 58.1172V50.0137L370.209 49.3984C366.799 47.8516 364.936 45.7773 364.936 42.543C364.936 38.4648 367.326 36.0215 371.562 35.7227V30.4141H373.988V35.7578C376.59 36.0039 378.629 36.9707 380.65 38.834L378.189 41.3301C376.66 40.082 375.342 39.3789 373.988 39.0801V46.9902L374.92 47.4297C378.611 49.1699 380.58 51.1562 380.58 54.5664C380.58 58.4512 378.418 60.6836 373.988 61.2285V66.625H371.562ZM371.562 45.8477V38.9922C369.734 39.2734 368.697 40.416 368.697 42.3672C368.697 43.9844 369.576 44.916 371.264 45.707L371.562 45.8477ZM373.988 57.9238C375.887 57.5195 376.818 56.4297 376.818 54.6367C376.818 53.0898 376.01 52.0352 374.533 51.3672L373.988 51.1211V57.9238ZM371.562 238.625V233.352C368.768 233.334 366.342 232.877 364.268 231.98L364.725 228.43C367.133 229.467 369.4 230.047 371.562 230.117V222.014L370.209 221.398C366.799 219.852 364.936 217.777 364.936 214.543C364.936 210.465 367.326 208.021 371.562 207.723V202.414H373.988V207.758C376.59 208.004 378.629 208.971 380.65 210.834L378.189 213.33C376.66 212.082 375.342 211.379 373.988 211.08V218.99L374.92 219.43C378.611 221.17 380.58 223.156 380.58 226.566C380.58 230.451 378.418 232.684 373.988 233.229V238.625H371.562ZM371.562 217.848V210.992C369.734 211.273 368.697 212.416 368.697 214.367C368.697 215.984 369.576 216.916 371.264 217.707L371.562 217.848ZM373.988 229.924C375.887 229.52 376.818 228.43 376.818 226.637C376.818 225.09 376.01 224.035 374.533 223.367L373.988 223.121V229.924Z" fill="#DCDCAA"/>
<path d="M416.352 61.3516C409.988 61.3516 406.402 57.9062 406.402 51.6484C406.402 45.5664 409.461 42.0156 414.805 42.0156C419.832 42.0156 422.715 45.1445 422.715 50.9453C422.715 51.8242 422.68 52.5977 422.609 53.3359H410.023C410.674 56.4473 413.029 58.082 416.773 58.082C418.32 58.082 419.797 57.9062 421.344 57.5898L421.801 60.8594C419.586 61.2812 417.758 61.3516 416.352 61.3516ZM409.883 50.4883H419.34C419.34 47.1484 417.652 45.2852 414.84 45.2852C411.957 45.2852 410.182 47.166 409.883 50.4883ZM437.621 61.3516C431.275 61.3516 427.672 57.9062 427.672 51.6484C427.672 45.5664 431.064 42.0156 437.129 42.0156C440.75 42.0156 443.457 43.4219 444.564 45.8828L441.699 48.0449C440.645 46.3398 438.939 45.3555 436.988 45.3555C433.473 45.3555 431.434 47.5703 431.434 51.4727C431.434 55.7266 433.807 58.0117 438.043 58.0117C439.783 58.0117 441.523 57.8359 443.176 57.5547L443.598 60.8242C441.664 61.2461 439.572 61.3516 437.621 61.3516ZM460.789 61V48.8711C460.789 46.5156 459.559 45.1797 457.449 45.1797C454.531 45.1797 453.055 46.9375 453.055 50.5234V61H449.328V34.6328H453.055V45.7422H453.406C453.617 43.2461 455.199 42.0156 458.328 42.0156C462.266 42.0156 464.516 44.5117 464.516 48.8711V61H460.789ZM478.016 61.3516C472.848 61.3516 469.859 57.8359 469.859 51.6836C469.859 45.5312 472.848 42.0156 478.016 42.0156C483.184 42.0156 486.172 45.5312 486.172 51.6836C486.172 57.8359 483.184 61.3516 478.016 61.3516ZM478.016 58.0117C480.758 58.0117 482.305 55.7266 482.305 51.6836C482.305 47.6406 480.758 45.3555 478.016 45.3555C475.273 45.3555 473.727 47.6406 473.727 51.6836C473.727 55.7266 475.273 58.0117 478.016 58.0117ZM416.352 233.352C409.988 233.352 406.402 229.906 406.402 223.648C406.402 217.566 409.461 214.016 414.805 214.016C419.832 214.016 422.715 217.145 422.715 222.945C422.715 223.824 422.68 224.598 422.609 225.336H410.023C410.674 228.447 413.029 230.082 416.773 230.082C418.32 230.082 419.797 229.906 421.344 229.59L421.801 232.859C419.586 233.281 417.758 233.352 416.352 233.352ZM409.883 222.488H419.34C419.34 219.148 417.652 217.285 414.84 217.285C411.957 217.285 410.182 219.166 409.883 222.488ZM437.621 233.352C431.275 233.352 427.672 229.906 427.672 223.648C427.672 217.566 431.064 214.016 437.129 214.016C440.75 214.016 443.457 215.422 444.564 217.883L441.699 220.045C440.645 218.34 438.939 217.355 436.988 217.355C433.473 217.355 431.434 219.57 431.434 223.473C431.434 227.727 433.807 230.012 438.043 230.012C439.783 230.012 441.523 229.836 443.176 229.555L443.598 232.824C441.664 233.246 439.572 233.352 437.621 233.352ZM460.789 233V220.871C460.789 218.516 459.559 217.18 457.449 217.18C454.531 217.18 453.055 218.938 453.055 222.523V233H449.328V206.633H453.055V217.742H453.406C453.617 215.246 455.199 214.016 458.328 214.016C462.266 214.016 464.516 216.512 464.516 220.871V233H460.789ZM478.016 233.352C472.848 233.352 469.859 229.836 469.859 223.684C469.859 217.531 472.848 214.016 478.016 214.016C483.184 214.016 486.172 217.531 486.172 223.684C486.172 229.836 483.184 233.352 478.016 233.352ZM478.016 230.012C480.758 230.012 482.305 227.727 482.305 223.684C482.305 219.641 480.758 217.355 478.016 217.355C475.273 217.355 473.727 219.641 473.727 223.684C473.727 227.727 475.273 230.012 478.016 230.012Z" fill="#608B4E"/>
<path d="M519.219 66.625V61.3516C516.424 61.334 513.998 60.877 511.924 59.9805L512.381 56.4297C514.789 57.4668 517.057 58.0469 519.219 58.1172V50.0137L517.865 49.3984C514.455 47.8516 512.592 45.7773 512.592 42.543C512.592 38.4648 514.982 36.0215 519.219 35.7227V30.4141H521.645V35.7578C524.246 36.0039 526.285 36.9707 528.307 38.834L525.846 41.3301C524.316 40.082 522.998 39.3789 521.645 39.0801V46.9902L522.576 47.4297C526.268 49.1699 528.236 51.1562 528.236 54.5664C528.236 58.4512 526.074 60.6836 521.645 61.2285V66.625H519.219ZM519.219 45.8477V38.9922C517.391 39.2734 516.354 40.416 516.354 42.3672C516.354 43.9844 517.232 44.916 518.92 45.707L519.219 45.8477ZM521.645 57.9238C523.543 57.5195 524.475 56.4297 524.475 54.6367C524.475 53.0898 523.666 52.0352 522.189 51.3672L521.645 51.1211V57.9238ZM544.531 61L537.359 42.0156H537.008V61H533.352V36.0391H538.062L545.234 55.0234H545.586V36.0391H549.242V61H544.531ZM552.635 61L559.842 36.0391H564.939L572.146 61H568.455L566.82 54.918H557.961L556.326 61H552.635ZM558.857 51.5781H565.924L562.549 39.0625H562.232L558.857 51.5781ZM575.188 61V36.0391H580.637L583.344 46.7617H583.625L586.332 36.0391H591.781V61H588.266V40.4688H587.809L585.102 50.8047H581.867L579.16 40.4688H578.703V61H575.188ZM596.844 61V36.0391H613.367V39.3789H600.5V46.832H610.203V50.1719H600.5V57.6602H613.367V61H596.844ZM362.875 135L375.688 90.625H385.812L398.625 135H389.719L387.531 126.594H373.969L371.781 135H362.875ZM375.938 118.969H385.562L381.031 101.469H380.469L375.938 118.969ZM423.188 135.625C414.844 135.625 411.406 131.281 411.406 121.188V95.9062H402.031V88.125H419.844V120.875C419.844 125.031 420.75 126.812 425.688 126.812C427.656 126.812 429.75 126.438 432.625 125.625L433.594 134.312C430.031 135.25 426.938 135.625 423.188 135.625ZM458.375 135.625C446.906 135.625 440.406 129.5 440.406 118.375C440.406 107.562 445.969 101.25 455.625 101.25C465.062 101.25 470.469 106.938 470.469 117.5C470.469 119.062 470.406 120.438 470.281 121.781H449.25C450.531 125.625 453.938 127.625 459.125 127.625C462.125 127.625 465 127.312 468.031 126.75L468.844 134.75C464.594 135.5 461.062 135.625 458.375 135.625ZM448.844 115.906H462.156C462.156 111.438 459.75 109 455.688 109C451.875 109 449.438 111.469 448.844 115.906ZM477.031 135L489.188 118.625L477.031 101.875H487.125L493.25 112.25L499.375 101.875H509.469L497.156 118.375L509.469 135H499.375L493.125 124.625L487.125 135H477.031ZM536.844 135.312L536.312 128H535.562C534.969 133.094 531.375 135.625 525.625 135.625C518.562 135.625 514.469 132.031 514.469 125.656C514.469 118.25 519.812 114.156 529.219 114.156C531.969 114.156 534 114.375 536 114.812V114.719C536 111.188 532.969 109.625 527 109.469L518.531 109.25L519.156 101.562L526.375 101.656C538.375 101.812 544.125 106.438 544.125 115.188V127.438L548.719 128.125V135L536.844 135.312ZM536 121.781C533.594 121.281 531.812 121.281 529.625 121.281C525.344 121.281 523.062 122.562 523.062 125.031C523.062 127.281 524.688 128.5 527.719 128.5C533.094 128.5 535.875 125.094 536 121.781ZM573.812 135V115.531C573.812 111.531 572.094 109.281 569.062 109.281C564.844 109.281 562.688 112.312 562.688 118.469V135H554.219V101.875H561.781L562.562 107.875H563.5C564.125 103.438 566.344 101.25 571.281 101.25C578.281 101.25 582.281 105.688 582.281 113.438V135H573.812ZM602.469 135.625C594.25 135.625 589.469 129.531 589.469 118.469C589.469 107.531 594.25 101.25 602.531 101.25C607.375 101.25 609.75 103.438 610.5 107.875H611.312V88.125H619.781V135L612.531 135.312L611.344 129H610.625C609.969 133.406 607.094 135.625 602.469 135.625ZM611.312 118.469C611.312 112.062 609.156 109.219 604.844 109.219C600.562 109.219 598.125 112.594 598.125 118.469C598.125 124.562 600.438 127.656 604.844 127.656C609.656 127.656 611.312 124.906 611.312 118.469ZM645.875 135.625C634.406 135.625 627.906 129.5 627.906 118.375C627.906 107.562 633.469 101.25 643.125 101.25C652.562 101.25 657.969 106.938 657.969 117.5C657.969 119.062 657.906 120.438 657.781 121.781H636.75C638.031 125.625 641.438 127.625 646.625 127.625C649.625 127.625 652.5 127.312 655.531 126.75L656.344 134.75C652.094 135.5 648.562 135.625 645.875 135.625ZM636.344 115.906H649.656C649.656 111.438 647.25 109 643.188 109C639.375 109 636.938 111.469 636.344 115.906ZM679.406 120.75V127.75H687.156V135H663.969V127.75H670.969V109.125H665.219V101.875H678.156L679.125 109.344H680.312C680.656 103.906 683.438 101.25 688.781 101.25C695.062 101.25 698.531 106.031 698.531 114.719H690.094C690.094 110.812 688.719 109.219 685.562 109.219C681.438 109.219 679.406 113.375 679.406 120.75ZM754.219 135.625C749.188 135.625 744.25 134.75 740.5 133.188L741.625 124.75C746.188 126.688 750.875 127.75 754.719 127.75C759.156 127.75 761.625 126.125 761.625 123.156C761.625 121.312 760.281 119.625 757.969 118.531L751.594 115.438C745.312 112.375 741.688 107.688 741.688 102.188C741.688 94.4375 747.031 90 756.406 90C761.844 90 766.875 91.9688 770.688 95.5938L765 102.125C762.125 99.375 759.125 97.8438 756.438 97.8438C752.75 97.8438 750.625 99.4688 750.625 102.406C750.625 104.375 752.125 106.156 754.781 107.562L760.781 110.656C767.031 113.906 770.562 118.344 770.562 123.312C770.562 131.188 764.688 135.625 754.219 135.625ZM800.281 135.625C788.844 135.625 784.094 131.281 784.094 121.188V109.656H776.156V101.875H784.094V91.875H792.531V101.875H807.219V109.656H792.531V120.375C792.531 125.438 794.938 127.594 800.906 127.594C802.812 127.594 804.906 127.344 807.719 126.969L808.469 134.875C805.719 135.375 803.25 135.625 800.281 135.625ZM833.375 135.625C821.906 135.625 815.406 129.5 815.406 118.375C815.406 107.562 820.969 101.25 830.625 101.25C840.062 101.25 845.469 106.938 845.469 117.5C845.469 119.062 845.406 120.438 845.281 121.781H824.25C825.531 125.625 828.938 127.625 834.125 127.625C837.125 127.625 840 127.312 843.031 126.75L843.844 134.75C839.594 135.5 836.062 135.625 833.375 135.625ZM823.844 115.906H837.156C837.156 111.438 834.75 109 830.688 109C826.875 109 824.438 111.469 823.844 115.906ZM854.219 149.375V101.875H862.062L862.594 107.875H863.188C863.969 103.438 866.438 101.25 871.469 101.25C879.75 101.25 884.531 107.531 884.531 118.469C884.531 129.531 879.75 135.625 871.531 135.625C866.906 135.625 864.031 133.406 863.375 129H862.688V149.375H854.219ZM862.688 118.469C862.688 124.906 864.344 127.656 869.156 127.656C873.562 127.656 875.875 124.562 875.875 118.469C875.875 112.594 873.438 109.219 869.156 109.219C864.844 109.219 862.688 112.062 862.688 118.469ZM911.844 135.312L911.312 128H910.562C909.969 133.094 906.375 135.625 900.625 135.625C893.562 135.625 889.469 132.031 889.469 125.656C889.469 118.25 894.812 114.156 904.219 114.156C906.969 114.156 909 114.375 911 114.812V114.719C911 111.188 907.969 109.625 902 109.469L893.531 109.25L894.156 101.562L901.375 101.656C913.375 101.812 919.125 106.438 919.125 115.188V127.438L923.719 128.125V135L911.844 135.312ZM911 121.781C908.594 121.281 906.812 121.281 904.625 121.281C900.344 121.281 898.062 122.562 898.062 125.031C898.062 127.281 899.688 128.5 902.719 128.5C908.094 128.5 910.875 125.094 911 121.781ZM948.812 135V115.531C948.812 111.531 947.094 109.281 944.062 109.281C939.844 109.281 937.688 112.312 937.688 118.469V135H929.219V101.875H936.781L937.562 107.875H938.5C939.125 103.438 941.344 101.25 946.281 101.25C953.281 101.25 957.281 105.688 957.281 113.438V135H948.812ZM980.75 135.625C971.219 135.625 965.719 129.375 965.719 118.438C965.719 107.5 971.219 101.25 980.75 101.25C990.281 101.25 995.781 107.5 995.781 118.438C995.781 129.375 990.281 135.625 980.75 135.625ZM980.75 127.594C984.812 127.594 987.125 124.281 987.125 118.438C987.125 112.562 984.812 109.281 980.75 109.281C976.719 109.281 974.375 112.562 974.375 118.438C974.375 124.281 976.719 127.594 980.75 127.594ZM1012.81 135L1001.47 101.875H1010.09L1017.97 127.562H1018.53L1026.41 101.875H1035.03L1023.69 135H1012.81ZM519.219 238.625V233.352C516.424 233.334 513.998 232.877 511.924 231.98L512.381 228.43C514.789 229.467 517.057 230.047 519.219 230.117V222.014L517.865 221.398C514.455 219.852 512.592 217.777 512.592 214.543C512.592 210.465 514.982 208.021 519.219 207.723V202.414H521.645V207.758C524.246 208.004 526.285 208.971 528.307 210.834L525.846 213.33C524.316 212.082 522.998 211.379 521.645 211.08V218.99L522.576 219.43C526.268 221.17 528.236 223.156 528.236 226.566C528.236 230.451 526.074 232.684 521.645 233.229V238.625H519.219ZM519.219 217.848V210.992C517.391 211.273 516.354 212.416 516.354 214.367C516.354 215.984 517.232 216.916 518.92 217.707L519.219 217.848ZM521.645 229.924C523.543 229.52 524.475 228.43 524.475 226.637C524.475 225.09 523.666 224.035 522.189 223.367L521.645 223.121V229.924ZM540.436 233.352C537.588 233.352 535.127 232.895 533.018 231.98L533.475 228.43C536.041 229.537 538.432 230.117 540.717 230.117C543.986 230.117 545.568 228.975 545.568 226.637C545.568 225.09 544.76 224.035 543.283 223.367L538.959 221.398C535.549 219.852 533.686 217.777 533.686 214.543C533.686 210.184 536.428 207.688 541.227 207.688C544.584 207.688 547.01 208.619 549.4 210.834L546.939 213.33C544.865 211.643 543.178 210.922 541.244 210.922C538.836 210.922 537.447 212.1 537.447 214.367C537.447 215.984 538.326 216.916 540.014 217.707L543.67 219.43C547.361 221.17 549.33 223.156 549.33 226.566C549.33 231.084 546.412 233.352 540.436 233.352ZM560.562 233V211.379H553.25V208.039H571.531V211.379H564.219V233H560.562ZM573.729 233L580.936 208.039H586.033L593.24 233H589.549L587.914 226.918H579.055L577.42 233H573.729ZM579.951 223.578H587.018L583.643 211.062H583.326L579.951 223.578ZM607.18 233.352C599.445 233.352 595.543 229.062 595.543 220.484C595.543 212.363 599.621 207.688 606.758 207.688C610.203 207.688 612.875 208.83 614.053 210.834L611.451 213.418C610.396 211.836 608.691 210.922 606.793 210.922C602.258 210.922 599.305 214.314 599.305 220.309C599.305 226.848 602.152 230.117 607.777 230.117C609.5 230.117 611.152 229.766 612.805 229.062L613.613 232.156C611.539 232.965 609.395 233.352 607.18 233.352ZM617.762 233V208.039H621.418V221.521C627.834 220.854 630.734 214.543 630.734 208.039H634.355C634.355 213.189 632.58 218.076 629.328 221.293L635.551 233H631.297L626.357 223.49C624.881 224.281 623.246 224.809 621.418 224.984V233H617.762ZM384.656 275.938C386.344 275.875 388.031 276.406 389.406 277.406C390.344 278.188 392.188 279.812 391.625 280.906C390.156 281.156 388.688 281.938 387.25 281.906C386.031 280.188 383.438 279.969 381.781 281.188C379.219 282.625 378.438 286.844 381.031 288.625C383.094 290.031 386 288.969 387.125 286.844H383.062C381.094 286.844 383.188 284.062 383.75 283.281C386.094 283.188 388.469 283.281 390.812 283.25C392 283.375 391.812 281.406 392.656 280.75C394.562 277.688 398.156 276.094 401.688 276.156C405.688 276.094 409.5 279.469 409.469 283.562C409.875 288.5 405.656 292.844 400.938 293.562C397 294.406 392.406 292.125 391.344 288.094C389.625 291.688 385.688 294.062 381.688 293.656C377.781 293.438 374.375 289.969 374.5 286C374.406 280.656 379.375 275.938 384.656 275.938ZM400.844 280.406C400.156 280.438 399.531 280.656 398.906 280.906C396.062 282 394.688 286.344 397.25 288.406C399.844 290.562 404.031 288.531 404.688 285.438C405.469 283.031 403.438 280.188 400.844 280.406ZM366.125 280.469H373.594C374.469 280.25 374.656 280.75 373.969 281.312C371.375 281.406 368.781 281.312 366.188 281.344C365.125 281.625 365.438 280.75 366.125 280.469ZM362.625 282.625H372.188C372.875 282.531 373.719 282.594 373.062 283.406C369.625 283.5 366.156 283.438 362.688 283.469C361.625 283.781 361.938 282.906 362.625 282.625ZM368.062 284.75H371.688C372.344 284.656 373.219 284.719 372.75 285.594C371.312 285.688 369.812 285.562 368.375 285.594C367.469 285.875 367.312 285.188 368.062 284.75ZM437 260.812H485V308.812H437V260.812ZM465.5 300.438C466.25 301.875 467.312 303 468.688 303.812C470.062 304.656 471.75 305.062 473.75 305.062C476 305.062 477.812 304.5 479.188 303.375C480.562 302.25 481.25 300.75 481.25 298.812C481.25 297 480.75 295.531 479.75 294.438C478.812 293.531 477.312 292.625 475.25 291.688L474.125 291.188C473.125 290.781 472.406 290.375 472 290C471.562 289.625 471.375 289.156 471.375 288.562C471.375 288 471.562 287.5 471.938 287.125C472.312 286.75 472.812 286.562 473.5 286.562C474.75 286.562 475.75 287.188 476.5 288.438L479.875 286.188C479.188 284.938 478.344 284.031 477.312 283.438C476.25 282.875 475 282.562 473.5 282.562C471.5 282.562 469.875 283.125 468.688 284.25C467.469 285.375 466.875 286.812 466.875 288.562C466.875 290.312 467.375 291.75 468.375 292.812C469.188 293.75 470.531 294.562 472.375 295.312L473.5 295.812C474.656 296.406 475.438 296.812 475.875 297.062C476.438 297.562 476.75 298.156 476.75 298.812C476.75 299.5 476.469 300.031 475.938 300.438C475.375 300.875 474.656 301.062 473.75 301.062C471.812 301.062 470.312 300.156 469.25 298.312L465.5 300.438ZM463.625 282.812H450.375V286.812H454.375V306.188H459V286.812H463.625V282.812ZM542.938 284.812C542.938 283.5 542.469 282.344 541.531 281.406C540.594 280.469 539.438 280 538.125 280C536.812 280 535.719 280.469 534.781 281.406C533.844 282.344 533.375 283.5 533.375 284.812C533.375 286.125 533.844 287.219 534.781 288.156C535.719 289.094 536.812 289.562 538.125 289.562C539.438 289.562 540.594 289.094 541.531 288.156C542.469 287.219 542.938 286.125 542.938 284.812ZM538.125 302.375C536.25 304.188 534.406 305.594 532.625 306.594C530.812 307.625 529.188 308.125 527.688 308.062C527.219 308.062 526.75 308 526.312 307.875C525.844 307.75 525.438 307.594 525.062 307.375C523.719 306.625 522.812 305.312 522.375 303.406C521.906 301.531 521.875 299.188 522.312 296.438C522.375 296 522.469 295.5 522.594 295C522.688 294.5 522.812 294 522.938 293.5C522.438 293.375 521.938 293.25 521.469 293.062C520.969 292.906 520.5 292.75 520.062 292.562C517.438 291.562 515.438 290.406 514.062 289.062C512.688 287.75 512 286.312 512 284.75C512 283.219 512.688 281.781 514.062 280.438C515.438 279.125 517.438 277.938 520.062 276.938C520.5 276.781 520.969 276.625 521.469 276.469C521.938 276.344 522.438 276.188 522.938 276C522.812 275.5 522.688 275 522.594 274.5C522.469 274 522.375 273.5 522.312 273C521.844 270.25 521.844 267.938 522.344 266.062C522.812 264.188 523.719 262.875 525.062 262.125C525.438 261.875 525.844 261.719 526.312 261.594C526.75 261.5 527.219 261.438 527.688 261.438C529.188 261.438 530.812 261.969 532.625 262.969C534.406 264 536.25 265.438 538.125 267.25C540 265.438 541.844 264 543.656 262.969C545.469 261.969 547.094 261.438 548.562 261.438C549 261.438 549.469 261.5 549.938 261.594C550.375 261.719 550.812 261.875 551.25 262.125C552.562 262.875 553.469 264.219 553.938 266.094C554.375 268 554.406 270.375 554 273.188C553.906 273.656 553.812 274.125 553.719 274.625C553.594 275.125 553.5 275.625 553.375 276.125C553.875 276.25 554.344 276.406 554.844 276.562C555.312 276.75 555.781 276.906 556.25 277.062C558.875 278.062 560.875 279.25 562.25 280.562C563.625 281.906 564.312 283.344 564.312 284.875C564.312 286.438 563.625 287.875 562.25 289.188C560.875 290.531 558.875 291.688 556.25 292.688C555.781 292.875 555.312 293.031 554.844 293.156C554.344 293.312 553.875 293.469 553.375 293.625C553.5 294.125 553.594 294.625 553.719 295.125C553.812 295.625 553.906 296.125 554 296.625C554.438 299.375 554.438 301.688 553.969 303.562C553.469 305.438 552.562 306.75 551.25 307.5C550.875 307.75 550.438 307.938 550 308.031C549.531 308.156 549.062 308.188 548.625 308.188C547.125 308.188 545.469 307.688 543.688 306.656C541.875 305.656 540.031 304.219 538.125 302.375ZM535.25 295.438C535.75 296.062 536.219 296.656 536.719 297.219C537.188 297.781 537.656 298.344 538.125 298.875C538.625 298.344 539.094 297.781 539.594 297.219C540.062 296.656 540.562 296.062 541.062 295.438C540.562 295.5 540.062 295.5 539.594 295.5H538.125H536.719C536.219 295.5 535.75 295.5 535.25 295.438ZM528.875 290.125C528.625 289.719 528.375 289.312 528.156 288.875C527.906 288.469 527.688 288.062 527.5 287.625C527.188 288.344 526.906 289.062 526.656 289.781C526.375 290.531 526.125 291.219 525.938 291.875C526.625 292.062 527.375 292.188 528.125 292.312C528.875 292.438 529.625 292.562 530.438 292.688C530.125 292.281 529.875 291.875 529.656 291.438C529.406 291.031 529.156 290.594 528.875 290.125ZM525.938 277.75C526.125 278.438 526.375 279.125 526.625 279.844C526.875 280.594 527.156 281.312 527.5 282.062C527.688 281.625 527.906 281.188 528.156 280.75C528.375 280.344 528.625 279.938 528.875 279.5C529.156 279.062 529.438 278.625 529.688 278.188L530.438 276.938C529.625 277.062 528.875 277.188 528.125 277.312C527.375 277.438 526.625 277.594 525.938 277.75ZM528.75 284.812L529.781 286.875C530.125 287.594 530.5 288.281 530.938 288.938C531.344 289.625 531.75 290.281 532.156 290.938C532.531 291.625 533 292.281 533.5 292.938C534.25 293.031 535 293.094 535.781 293.094C536.531 293.125 537.312 293.125 538.125 293.125C538.938 293.125 539.75 293.125 540.531 293.094C541.281 293.094 542.062 293.031 542.812 292.938C543.25 292.281 543.688 291.625 544.125 290.938L545.375 288.938C545.781 288.281 546.156 287.594 546.531 286.875L547.562 284.812C547.219 284.125 546.875 283.406 546.531 282.719C546.156 282.031 545.781 281.344 545.375 280.625C544.938 279.969 544.531 279.312 544.156 278.625C543.75 277.969 543.312 277.312 542.812 276.625C542.062 276.562 541.281 276.5 540.531 276.469C539.75 276.469 538.938 276.438 538.125 276.438C537.312 276.438 536.531 276.469 535.781 276.469C535 276.5 534.25 276.562 533.5 276.625C533.031 277.312 532.594 277.969 532.188 278.625L530.938 280.625C530.5 281.344 530.125 282.031 529.781 282.719C529.406 283.406 529.062 284.125 528.75 284.812ZM548.875 282C549.156 281.312 549.438 280.594 549.719 279.844C549.969 279.125 550.219 278.406 550.438 277.688C549.719 277.531 549 277.375 548.25 277.25C547.5 277.125 546.719 277.031 545.938 276.938C546.219 277.375 546.469 277.781 546.719 278.156C546.938 278.562 547.188 279 547.438 279.438L548.875 282ZM548.875 287.562C548.625 288.031 548.375 288.469 548.156 288.875C547.906 289.312 547.688 289.688 547.438 290.062C547.188 290.531 546.938 290.969 546.688 291.375L545.938 292.625C546.719 292.5 547.5 292.375 548.25 292.25C549 292.125 549.719 292 550.438 291.812C550.219 291.156 549.969 290.469 549.719 289.719C549.438 289 549.156 288.281 548.875 287.562ZM550.062 305.438C550.938 304.938 551.5 303.938 551.781 302.438C552.031 300.938 552 299.125 551.625 296.938C551.531 296.5 551.438 296.031 551.375 295.531C551.281 295.062 551.188 294.594 551.062 294.125C549.969 294.438 548.844 294.656 547.719 294.812C546.562 295 545.375 295.125 544.188 295.25C543.469 296.25 542.75 297.219 542.031 298.094C541.281 299 540.562 299.844 539.812 300.625C541.344 302.188 542.875 303.406 544.406 304.344C545.906 305.281 547.312 305.75 548.562 305.75C548.844 305.75 549.125 305.75 549.375 305.688C549.625 305.656 549.844 305.562 550.062 305.438ZM552.688 278.312C552.375 279.375 552.031 280.438 551.594 281.5C551.156 282.594 550.688 283.688 550.188 284.812C550.688 285.906 551.125 287 551.562 288.062C551.969 289.156 552.344 290.219 552.688 291.25C553.188 291.125 553.656 291 554.094 290.844C554.531 290.719 554.938 290.562 555.375 290.375C557.438 289.594 559.062 288.719 560.219 287.75C561.344 286.812 561.938 285.812 561.938 284.812C561.938 283.656 561.125 282.5 559.5 281.312C557.875 280.156 555.594 279.156 552.688 278.312ZM548.625 263.812C547.312 263.812 545.938 264.312 544.438 265.25C542.938 266.219 541.406 267.438 539.875 268.938C540.625 269.75 541.344 270.594 542.094 271.469C542.812 272.375 543.531 273.344 544.25 274.375C545.438 274.5 546.625 274.656 547.781 274.812C548.906 275 550.031 275.188 551.125 275.438C551.188 274.938 551.281 274.469 551.406 274C551.5 273.562 551.594 273.094 551.688 272.625C552.062 270.438 552.094 268.594 551.812 267.094C551.5 265.625 550.938 264.656 550.062 264.188C549.844 264.031 549.625 263.938 549.375 263.875C549.125 263.844 548.875 263.812 548.625 263.812ZM541.062 274.125C540.562 273.562 540.062 272.969 539.594 272.375C539.094 271.812 538.625 271.25 538.125 270.688C537.656 271.25 537.188 271.781 536.719 272.344C536.219 272.906 535.75 273.5 535.25 274.125C535.75 274.125 536.219 274.125 536.719 274.094C537.188 274.094 537.656 274.062 538.125 274.062C538.625 274.062 539.094 274.094 539.594 274.094C540.062 274.125 540.562 274.125 541.062 274.125ZM526.25 264.188C525.375 264.688 524.781 265.688 524.531 267.156C524.25 268.656 524.312 270.469 524.688 272.625C524.75 273.094 524.844 273.562 524.938 274.031C525 274.531 525.125 275 525.25 275.438C526.312 275.188 527.438 274.969 528.594 274.781C529.719 274.594 530.906 274.469 532.125 274.375C532.812 273.344 533.531 272.375 534.281 271.469C535 270.594 535.75 269.75 536.5 268.938C534.938 267.406 533.406 266.156 531.906 265.219C530.375 264.281 529 263.812 527.75 263.812C527.438 263.812 527.188 263.844 526.938 263.875C526.688 263.938 526.438 264.031 526.25 264.188ZM523.625 291.25C523.906 290.25 524.281 289.219 524.719 288.094C525.156 287 525.625 285.906 526.125 284.812C525.625 283.688 525.156 282.594 524.75 281.5C524.312 280.438 523.938 279.375 523.625 278.312C523.125 278.438 522.656 278.594 522.219 278.719C521.781 278.875 521.344 279.031 520.938 279.188C518.844 280 517.219 280.875 516.094 281.844C514.938 282.844 514.375 283.812 514.375 284.812C514.375 285.938 515.188 287.094 516.812 288.281C518.438 289.469 520.688 290.469 523.625 291.25ZM524.688 296.938C524.312 299.125 524.25 300.938 524.531 302.438C524.781 303.938 525.375 304.938 526.25 305.438C526.5 305.562 526.719 305.656 526.969 305.688C527.188 305.75 527.438 305.75 527.75 305.75C529 305.75 530.375 305.281 531.906 304.344C533.406 303.406 534.938 302.188 536.5 300.625C535.75 299.844 535 299 534.281 298.094C533.531 297.219 532.812 296.25 532.125 295.25C530.906 295.125 529.719 294.969 528.594 294.781C527.438 294.594 526.312 294.375 525.25 294.125C525.125 294.625 525 295.125 524.938 295.562L524.688 296.938ZM639.75 280.188L640.25 280.562L640.125 281.188C639.688 282.125 639.156 282.875 638.5 283.438C637 284.938 635 285.688 632.5 285.688H632C630.406 289.781 628.531 293.031 626.375 295.438C624.688 297.375 622.781 299 620.625 300.312C617.938 301.812 615.125 302.812 612.125 303.312C609.938 303.75 607.781 303.938 605.625 303.938C600.438 303.938 596.531 303.125 593.875 301.438C591.438 299.938 589.656 297.625 588.5 294.438C587.5 291.688 587 288.688 587 285.438C587 285.031 587.125 284.656 587.438 284.312C587.719 284 588.125 283.812 588.625 283.812H623.75C624.156 283.812 624.688 283.75 625.375 283.562C626.281 283.406 627.031 283.156 627.625 282.812C626.531 281.062 626.25 279.125 626.75 276.938C626.906 275.875 627.375 274.812 628.125 273.812L628.625 273.062L629.375 273.562C629.938 273.906 630.531 274.375 631.125 274.938C632.281 276.188 632.938 277.625 633.125 279.188C633.938 279.031 634.688 278.938 635.375 278.938C637.188 278.938 638.656 279.312 639.75 280.062V280.188ZM591.875 282.812C591.625 282.812 591.5 282.656 591.5 282.312V278.188C591.5 277.875 591.625 277.688 591.875 277.688H596.625C596.875 277.688 597 277.875 597 278.188V282.312C597 282.656 596.875 282.812 596.625 282.812H591.875ZM598.375 282.812C598.125 282.812 598 282.656 598 282.312V278.188C598 277.875 598.125 277.688 598.375 277.688H603.125C603.375 277.688 603.5 277.875 603.5 278.188V282.312C603.5 282.656 603.375 282.812 603.125 282.812H598.375ZM605 282.812C604.656 282.812 604.5 282.656 604.5 282.312V278.188C604.5 277.875 604.656 277.688 605 277.688H609.625C609.938 277.688 610.125 277.875 610.125 278.188V282.312C610.125 282.656 609.938 282.812 609.625 282.812H605ZM611.5 282.812C611.25 282.812 611.125 282.656 611.125 282.312V278.188C611.125 277.875 611.25 277.688 611.5 277.688H616.125C616.438 277.688 616.625 277.875 616.625 278.188V282.312C616.625 282.656 616.438 282.812 616.125 282.812H611.5ZM598.375 276.812C598.125 276.812 598 276.656 598 276.312V272.188C598 271.875 598.125 271.688 598.375 271.688H603.125C603.375 271.688 603.5 271.875 603.5 272.188V276.312C603.5 276.5 603.438 276.625 603.375 276.688C603.281 276.781 603.188 276.812 603.125 276.812H598.375ZM605 276.812C604.656 276.812 604.5 276.656 604.5 276.312V272.188C604.5 271.875 604.656 271.688 605 271.688H609.625C609.938 271.688 610.125 271.875 610.125 272.188V276.312C610.125 276.656 609.938 276.812 609.625 276.812H605ZM611.5 276.812C611.25 276.812 611.125 276.656 611.125 276.312V272.188C611.125 271.875 611.25 271.688 611.5 271.688H616.125C616.438 271.688 616.625 271.875 616.625 272.188V276.312C616.625 276.656 616.438 276.812 616.125 276.812H611.5ZM611.5 270.688C611.25 270.688 611.125 270.562 611.125 270.312V266.188C611.125 265.875 611.25 265.688 611.5 265.688H616.125C616.438 265.688 616.625 265.875 616.625 266.188V270.312C616.625 270.562 616.438 270.688 616.125 270.688H611.5ZM618 282.812C617.75 282.812 617.625 282.656 617.625 282.312V278.188C617.625 277.875 617.75 277.688 618 277.688H622.75C623 277.688 623.125 277.875 623.125 278.188V282.312C623.125 282.656 623 282.812 622.75 282.812H618ZM694.75 288.812L700.625 289.812C699.781 292.312 698.188 294.312 695.875 295.812L693.625 290.188C693.531 289.938 693.531 289.688 693.625 289.438C693.688 289.188 693.875 289 694.125 288.812H694.75ZM685.5 289.562C685.5 289.906 685.438 290.125 685.375 290.188L683.125 295.688C680.875 294.281 679.281 292.312 678.375 289.812L684.5 288.812C685 288.812 685.312 289.062 685.5 289.562ZM690.375 291.688L693.375 296.938C692.938 297.125 692.531 297.25 692.125 297.312C689.938 297.812 687.781 297.688 685.625 296.938L688.625 291.688C688.688 291.625 688.812 291.531 689 291.438V291.312C689.25 291.25 689.5 291.25 689.75 291.312C690 291.406 690.188 291.531 690.375 291.688ZM699.625 279.562C700.938 281.75 701.531 284.188 701.375 286.938L695.5 285.312C695.312 285.25 695.156 285.125 695 284.938C694.812 284.781 694.75 284.562 694.75 284.25C694.75 283.969 694.875 283.75 695.125 283.562V283.438L699.625 279.562ZM691.25 279.938L691 274.062C693.656 274.406 695.906 275.5 697.75 277.312L692.875 280.812C692.688 280.906 692.5 280.938 692.25 280.938C692 280.938 691.75 280.875 691.562 280.688C691.344 280.531 691.25 280.281 691.25 279.938ZM686.125 280.812L681.125 277.312C682.688 275.75 684.625 274.688 686.875 274.188L688 274.062L687.75 280.062C687.656 280.25 687.562 280.438 687.438 280.625C687.312 280.844 687.125 280.969 686.875 281C686.625 281.062 686.375 281 686.125 280.812ZM683.5 285.312L677.75 286.938C677.406 284.375 677.938 281.875 679.375 279.438L683.875 283.562C684.031 283.75 684.125 283.938 684.188 284.125C684.219 284.344 684.188 284.562 684.062 284.812C683.938 285.062 683.75 285.25 683.5 285.312ZM687.875 287.062L687.375 285.312L688.625 283.938H690.375L691.5 285.312L691.125 287.062L689.5 287.938L687.875 287.062ZM716.875 290.562C717.031 291.156 717.031 291.688 716.875 292.188L716.75 292.688C716.562 293.031 716.375 293.375 716.125 293.688L703 310.188C702.656 310.531 702.375 310.781 702.125 310.938L700.875 311.438H700.5H678.875C678.438 311.438 678.156 311.406 678 311.312C677.562 311.25 677.188 311.125 676.875 310.938L676.125 310.312C676.125 310.25 676.062 310.188 676 310.188L662.625 293.312C662.438 293.156 662.312 292.938 662.25 292.688L662.125 292.188C661.938 291.688 661.938 291.156 662.125 290.562L666.875 270.188C667.125 269.031 667.75 268.188 668.75 267.688L687.875 258.438C688.938 258.031 690.031 258.031 691.125 258.438L710.25 267.688C711.25 268.188 711.875 269.031 712.125 270.188L716.875 290.562ZM697.125 298.562C698.625 297.656 699.938 296.469 701.125 295C702.281 293.562 703.125 292 703.625 290.312H704.125C704.281 290.25 704.5 290.188 704.75 290.188C705.406 290.281 706.125 290.438 706.875 290.688C707.125 290.875 707.406 291 707.75 291.062L708.375 291.188C708.688 291.281 708.969 291.219 709.188 291C709.375 290.812 709.531 290.562 709.625 290.25C709.688 289.969 709.625 289.688 709.438 289.438C709.219 289.188 708.938 289.031 708.625 288.938C708.438 288.938 708.375 288.906 708.375 288.812H707.25C706.406 288.75 705.688 288.625 705.125 288.438C704.938 288.375 704.781 288.188 704.625 287.938L704.125 287.812C704.688 284.062 703.938 280.656 701.875 277.562L702.25 277.188C702.25 276.938 702.312 276.75 702.5 276.562C702.906 276.156 703.438 275.75 704.125 275.312C704.531 275.156 704.875 275 705.125 274.812L705.375 274.562L705.5 274.438C705.75 274.188 705.875 273.938 705.875 273.625C705.875 273.344 705.75 273.062 705.562 272.812C705.344 272.562 705.062 272.438 704.75 272.438C704.406 272.438 704.125 272.562 703.875 272.812L703.625 272.938L702.875 273.812C702.438 274.312 701.938 274.781 701.375 275.188C701.125 275.281 700.875 275.281 700.625 275.188L700.25 275.562C697.656 272.812 694.5 271.281 690.75 270.938V270.438C690.5 270.375 690.375 270.188 690.375 269.938C690.375 269.281 690.406 268.562 690.5 267.812C690.562 267.5 690.625 267.125 690.625 266.688V266.188C690.625 265.875 690.5 265.594 690.25 265.375C690 265.188 689.688 265.094 689.375 265.125C689.031 265.188 688.781 265.312 688.625 265.562C688.438 265.812 688.375 266.125 688.375 266.438V266.688C688.375 267.125 688.406 267.5 688.5 267.812C688.562 268.562 688.625 269.281 688.625 269.938C688.531 270.188 688.406 270.375 688.25 270.438V270.938C687.5 271.031 686.781 271.156 686.125 271.312C683.188 272 680.75 273.406 678.75 275.562L678.25 275.312C678 275.312 677.781 275.281 677.625 275.188C677.125 274.875 676.562 274.406 676 273.812L675.125 272.812C674.875 272.656 674.562 272.562 674.25 272.5C673.906 272.469 673.625 272.594 673.375 272.875C673.125 273.188 673.031 273.5 673.125 273.812C673.188 274.156 673.375 274.406 673.625 274.562L673.875 274.812L674.875 275.312C675.438 275.656 676 276.062 676.5 276.562C676.656 276.75 676.75 276.938 676.75 277.188L677.125 277.562C675.031 280.75 674.281 284.156 674.875 287.812L674.375 287.938C674.188 288.188 674.031 288.375 673.875 288.438C672.938 288.688 672.25 288.812 671.75 288.812C671.25 288.812 670.875 288.875 670.625 288.938L670.125 289.062C669.781 289.156 669.562 289.344 669.438 289.625C669.312 289.938 669.281 290.219 669.375 290.5C669.438 290.812 669.625 291 669.938 291.125C670.219 291.25 670.531 291.281 670.875 291.188H671.125C671.531 291.031 671.875 290.875 672.125 290.688C673.031 290.438 673.75 290.281 674.25 290.188C674.406 290.188 674.625 290.281 674.875 290.438L675.375 290.312C676.531 293.906 678.75 296.656 682 298.562L681.75 299.062C681.812 299.25 681.875 299.438 681.875 299.688C681.531 300.375 681.156 301 680.75 301.562L680.125 302.438C680.125 302.625 680.062 302.75 680 302.812V302.938C679.812 303.281 679.812 303.594 680 303.875C680.156 304.188 680.375 304.375 680.688 304.438C680.969 304.531 681.25 304.5 681.562 304.375C681.844 304.25 682.031 304.031 682.125 303.688L682.25 303.438L682.625 302.438C682.875 301.625 683.156 300.906 683.5 300.312C683.562 300.25 683.75 300.156 684 300.062L684.25 299.688C687.75 301.031 691.281 301.031 694.875 299.688L695 300.062C695.25 300.156 695.438 300.281 695.625 300.438C695.781 300.875 696.031 301.438 696.375 302.188L696.75 303.438L697 303.938C697.156 304.188 697.375 304.375 697.688 304.438C697.969 304.531 698.25 304.5 698.562 304.312C698.844 304.156 699 303.938 699.062 303.625C699.094 303.344 699.062 303.062 699 302.812L698.875 302.438L698.25 301.562C697.906 301.156 697.531 300.531 697.125 299.688C697.125 299.531 697.156 299.312 697.25 299.062C697.156 299 697.125 298.812 697.125 298.562Z" fill="#D4D4D4"/>
</svg>
